<svg width="13" height="17" viewBox="0 0 13 17" fill="none" xmlns="http://www.w3.org/2000/svg">
<path d="M6.04999 0.0500031C2.74099 0.0500031 0.0499878 2.741 0.0499878 6.05C0.0499878 10.209 5.46599 15.673 5.69599 15.904C5.79399 16.001 5.92199 16.05 6.04999 16.05C6.17799 16.05 6.30599 16.001 6.40399 15.904C6.63399 15.673 12.05 10.209 12.05 6.05C12.05 2.741 9.35899 0.0500031 6.04999 0.0500031ZM6.04999 14.827C4.85599 13.549 1.04999 9.227 1.04999 6.05C1.04999 3.293 3.29299 1.05 6.04999 1.05C8.80699 1.05 11.05 3.293 11.05 6.05C11.05 9.224 7.24399 13.549 6.04999 14.827Z" fill="currentColor" stroke="currentColor" stroke-width="0.1"/>
<path d="M6.04999 3.05C4.39599 3.05 3.04999 4.396 3.04999 6.05C3.04999 7.704 4.39599 9.05 6.04999 9.05C7.70399 9.05 9.04999 7.704 9.04999 6.05C9.04999 4.396 7.70399 3.05 6.04999 3.05ZM6.04999 8.05C4.94699 8.05 4.04999 7.153 4.04999 6.05C4.04999 4.947 4.94699 4.05 6.04999 4.05C7.15299 4.05 8.04999 4.947 8.04999 6.05C8.04999 7.153 7.15299 8.05 6.04999 8.05Z" fill="currentColor" stroke="currentColor" stroke-width="0.2"/>
</svg>
