<svg width="24" height="24" viewBox="0 0 24 24" fill="none" xmlns="http://www.w3.org/2000/svg">
<path fill-rule="evenodd" clip-rule="evenodd" d="M16.3652 13.3707C18.1542 13.3707 19.6748 12.3581 20.3457 10.9235L20.793 11.0501C20.9271 11.0922 21.106 11.0922 21.2402 11.0922C22.582 11.0922 23.7001 10.0796 23.7001 8.81377C23.7001 7.54794 22.582 6.53528 21.2402 6.53528C21.0613 6.53528 20.8824 6.53528 20.7482 6.57748H20.7035L19.8001 7.37073C19.5764 6.44246 19.5407 4.76313 18.4673 4.76313C18.1542 4.76313 17.8859 4.80533 17.6175 4.93191L17.4833 4.9741L17.3939 4.84752C16.723 3.96144 15.6496 3.37073 14.3973 3.37073C13.0109 3.37073 11.8033 4.08803 11.2219 5.14288L11.1324 5.35385L10.9982 5.31166C10.9088 5.31166 10.8193 5.31166 10.7299 5.31166C9.79067 5.31166 8.9409 5.77579 8.44893 6.4509V6.49309L8.31475 6.4509C8.09113 6.4087 7.8675 6.36651 7.64388 6.36651C6.88356 6.36651 7.06246 7.08381 6.65993 7.59014H5.63126L5.54181 7.54794C5.45237 7.54794 5.40764 7.54794 5.31819 7.54794C4.69205 7.54794 4.20007 8.01208 4.20007 8.5606C4.20007 9.10913 4.69205 9.57326 5.31819 9.57326C5.45237 9.57326 5.63127 9.53107 5.76544 9.48887L5.81016 9.44668L5.72071 9.53107C5.89961 9.74204 6.07851 9.95301 6.30214 10.0796L6.65993 10.2484L6.74938 10.3749C7.15191 10.9235 7.82278 11.261 8.5831 11.261C8.89617 11.261 9.16452 11.2188 9.43287 11.0922L9.47759 11.0501V11.0922C9.92484 12.0627 10.9535 12.7378 12.1611 12.7378C12.6531 12.7378 13.145 12.6112 13.5476 12.4003L13.5923 12.4425C14.3973 13.0332 15.3365 13.3707 16.3652 13.3707Z" fill="white"/>
<path fill-rule="evenodd" clip-rule="evenodd" d="M16.199 13.124C17.9669 13.124 19.4697 12.1116 20.1327 10.6774L20.5746 10.8039C20.7072 10.8461 20.884 10.8461 21.0166 10.8461C22.3426 10.8461 23.4476 9.83372 23.4476 8.56821C23.4476 7.3027 22.3426 6.2903 21.0166 6.2903C20.8398 6.2903 20.663 6.2903 20.5304 6.33248H20.4862L20.442 6.16375C20.2211 5.23571 19.3371 4.51858 18.2763 4.51858C17.9669 4.51858 17.7017 4.56077 17.4365 4.68732L17.3039 4.7295L17.2155 4.60295C16.5525 3.7171 15.4918 3.12653 14.2542 3.12653C12.884 3.12653 11.6907 3.84365 11.1161 4.89824L11.0277 5.10916L10.8951 5.06697C10.8067 5.06697 10.7183 5.06697 10.6299 5.06697C9.70172 5.06697 8.86194 5.53099 8.37575 6.20593V6.24811L8.24315 6.20593C8.02216 6.16375 7.80116 6.12156 7.58017 6.12156C6.82879 6.12156 6.16581 6.50121 5.76802 7.00742L5.59122 7.34489L5.50282 7.3027C5.41443 7.3027 5.37023 7.3027 5.28183 7.3027C4.66305 7.3027 4.17686 7.76672 4.17686 8.31511C4.17686 8.8635 4.66305 9.32752 5.28183 9.32752C5.41443 9.32752 5.59122 9.28533 5.72382 9.24315L5.76802 9.20096L5.67962 9.28533C5.85641 9.49625 6.03321 9.70717 6.2542 9.83372L6.6078 10.0025L6.69619 10.129C7.09398 10.6774 7.75696 11.0149 8.50835 11.0149C8.81774 11.0149 9.08293 10.9727 9.34813 10.8461L9.39232 10.8039V10.8461C9.83431 11.8163 10.8509 12.4913 12.0443 12.4913C12.5304 12.4913 13.0166 12.3647 13.4144 12.1538L13.4586 12.196C14.2542 12.7866 15.1824 13.124 16.199 13.124Z" fill="url(#paint0_linear_26_125)"/>
<path opacity="0.1176" fill-rule="evenodd" clip-rule="evenodd" d="M21.0608 6.16377L20.6188 6.20595V6.12159C20.3978 5.15136 19.4696 4.39206 18.3647 4.39206C18.0553 4.39206 17.7459 4.43424 17.4807 4.56079H17.4365L17.3923 4.51861C16.7293 3.59057 15.6243 3 14.3426 3C12.9282 3 11.7348 3.71712 11.0718 4.81389L11.0277 4.94045H10.9393C10.8509 4.94045 10.7625 4.94045 10.6299 4.94045C9.79008 4.94045 8.9945 5.27791 8.46412 5.86848L8.28732 6.0794H8.24312C8.02213 5.99503 7.80113 5.99504 7.53594 5.99504C6.74036 5.99504 6.03318 6.37469 5.63539 6.96526L5.50279 7.17618H5.45859C5.37019 7.17618 5.2818 7.13399 5.1934 7.13399C4.57461 9.45409 22.4752 9.32754 21.0608 6.16377Z" fill="white"/>
<path opacity="0.4627" fill-rule="evenodd" clip-rule="evenodd" d="M13.0829 14.9851C14.4973 14.9851 15.6906 14.268 16.3978 13.2556L16.6188 12.8759L16.9282 12.9603C17.0608 13.0025 17.1934 13.0025 17.3702 13.0025C18.6078 13.0025 19.6243 12.0744 19.6243 10.8933C19.6243 9.79652 18.7404 8.91067 17.5912 8.78412H17.4144H17.3702L17.0166 8.8263V8.74193C16.8398 7.85608 16 7.22332 15.0276 7.22332C14.7625 7.22332 14.4973 7.26551 14.2321 7.39206L14.1879 7.34988C13.6133 6.54839 12.5967 6 11.4917 6C10.2542 6 9.14919 6.63275 8.6188 7.60298L8.57461 7.72953H8.53041C8.44201 7.72953 8.35361 7.72953 8.26521 7.72953L7.20444 13.0868L7.33704 13.3399C7.82323 14.0571 8.663 14.5211 9.59118 14.5211C9.94477 14.5211 10.2542 14.4789 10.5636 14.3524L10.8287 14.2258L11.3591 14.5633C11.7127 14.8164 12.3757 14.9851 13.0829 14.9851Z" fill="#93B3C1"/>
<path fill-rule="evenodd" clip-rule="evenodd" d="M12.3652 16.3707C14.1542 16.3707 15.6748 15.3581 16.3457 13.9235L16.793 14.0501C16.9271 14.0922 17.106 14.0922 17.2402 14.0922C18.582 14.0922 19.7001 13.0796 19.7001 11.8138C19.7001 10.5479 18.582 9.53528 17.2402 9.53528C17.0613 9.53528 16.8824 9.53528 16.7482 9.57748H16.7035L15.8001 10.3707C15.5764 9.44246 15.5407 7.76313 14.4673 7.76313C14.1542 7.76313 13.8859 7.80533 13.6175 7.93191L13.4833 7.9741L13.3939 7.84752C12.723 6.96144 11.6496 6.37073 10.3973 6.37073C9.01085 6.37073 7.80328 7.08803 7.22186 8.14288L7.13241 8.35385L6.99824 8.31166C6.90879 8.31166 6.81934 8.31166 6.72989 8.31166C5.79067 8.31166 4.9409 8.77579 4.44893 9.4509V9.49309L4.31475 9.4509C4.09113 9.4087 3.8675 9.36651 3.64388 9.36651C2.88356 9.36651 3.06246 10.0838 2.65993 10.5901H1.63126L1.54181 10.5479C1.45237 10.5479 1.40764 10.5479 1.31819 10.5479C0.692045 10.5479 0.200073 11.0121 0.200073 11.5606C0.200073 12.1091 0.692045 12.5733 1.31819 12.5733C1.45237 12.5733 1.63127 12.5311 1.76544 12.4889L1.81016 12.4467L1.72071 12.5311C1.89961 12.742 2.07851 12.953 2.30214 13.0796L2.65993 13.2484L2.74938 13.3749C3.15191 13.9235 3.82278 14.261 4.5831 14.261C4.89617 14.261 5.16452 14.2188 5.43287 14.0922L5.47759 14.0501V14.0922C5.92484 15.0627 6.95351 15.7378 8.16108 15.7378C8.65305 15.7378 9.14503 15.6112 9.54755 15.4003L9.59227 15.4425C10.3973 16.0332 11.3365 16.3707 12.3652 16.3707Z" fill="white"/>
<path fill-rule="evenodd" clip-rule="evenodd" d="M12.199 16.124C13.9669 16.124 15.4697 15.1116 16.1327 13.6774L16.5746 13.8039C16.7072 13.8461 16.884 13.8461 17.0166 13.8461C18.3426 13.8461 19.4476 12.8337 19.4476 11.5682C19.4476 10.3027 18.3426 9.2903 17.0166 9.2903C16.8398 9.2903 16.663 9.2903 16.5304 9.33248H16.4862L16.442 9.16375C16.2211 8.23571 15.3371 7.51858 14.2763 7.51858C13.9669 7.51858 13.7017 7.56077 13.4365 7.68732L13.3039 7.7295L13.2155 7.60295C12.5525 6.7171 11.4918 6.12653 10.2542 6.12653C8.88404 6.12653 7.69067 6.84365 7.11608 7.89824L7.02768 8.10916L6.89509 8.06697C6.80669 8.06697 6.71829 8.06697 6.62989 8.06697C5.70172 8.06697 4.86194 8.53099 4.37575 9.20593V9.24811L4.24315 9.20593C4.02216 9.16375 3.80116 9.12156 3.58017 9.12156C2.82879 9.12156 2.16581 9.50121 1.76802 10.0074L1.59122 10.3449L1.50282 10.3027C1.41443 10.3027 1.37023 10.3027 1.28183 10.3027C0.663046 10.3027 0.176857 10.7667 0.176857 11.3151C0.176857 11.8635 0.663046 12.3275 1.28183 12.3275C1.41443 12.3275 1.59122 12.2853 1.72382 12.2431L1.76802 12.201L1.67962 12.2853C1.85641 12.4963 2.03321 12.7072 2.2542 12.8337L2.6078 13.0025L2.69619 13.129C3.09398 13.6774 3.75696 14.0149 4.50835 14.0149C4.81774 14.0149 5.08293 13.9727 5.34813 13.8461L5.39232 13.8039V13.8461C5.83431 14.8163 6.85089 15.4913 8.04426 15.4913C8.53045 15.4913 9.01663 15.3647 9.41442 15.1538L9.45862 15.196C10.2542 15.7866 11.1824 16.124 12.199 16.124Z" fill="url(#paint1_linear_26_125)"/>
<path opacity="0.1176" fill-rule="evenodd" clip-rule="evenodd" d="M17.0608 9.16377L16.6188 9.20595V9.12159C16.3978 8.15136 15.4696 7.39206 14.3647 7.39206C14.0553 7.39206 13.7459 7.43424 13.4807 7.56079H13.4365L13.3923 7.51861C12.7293 6.59057 11.6243 6 10.3426 6C8.9282 6 7.73483 6.71712 7.07185 7.81389L7.02765 7.94045H6.93925C6.85086 7.94045 6.76246 7.94045 6.62986 7.94045C5.79008 7.94045 4.9945 8.27791 4.46412 8.86848L4.28732 9.0794H4.24312C4.02213 8.99503 3.80113 8.99504 3.53594 8.99504C2.74036 8.99504 2.03318 9.37469 1.63539 9.96526L1.50279 10.1762H1.45859C1.37019 10.1762 1.2818 10.134 1.1934 10.134C0.574614 12.4541 18.4752 12.3275 17.0608 9.16377Z" fill="white"/>
<path d="M1.51097 15.7038C1.22877 16.3193 1.12955 16.8777 1.28937 16.9509C1.4492 17.0242 1.80752 16.5847 2.08973 15.9692C2.37194 15.3537 2.77836 13.7034 2.77836 13.7034C2.77836 13.7034 1.7932 15.0883 1.51097 15.7038Z" fill="#63AFF9"/>
<path d="M9.64618 20.2681C9.28931 21.0465 9.14106 21.7421 9.31504 21.8219C9.48904 21.9017 9.91937 21.3354 10.2762 20.557C10.6331 19.7787 11.198 17.7151 11.198 17.7151C11.198 17.7151 10.0031 19.4897 9.64618 20.2681Z" fill="#63AFF9"/>
<path d="M14.4397 18.406C14.1968 18.9356 14.1024 19.4118 14.2287 19.4698C14.3551 19.5277 14.6543 19.1453 14.8971 18.6158C15.1399 18.0862 15.5099 16.6756 15.5099 16.6756C15.5099 16.6756 14.6825 17.8764 14.4397 18.406Z" fill="#63AFF9"/>
<path d="M18.4263 16.3505C18.1909 16.864 18.1187 17.3348 18.265 17.4019C18.4114 17.469 18.721 17.1071 18.9564 16.5935C19.1919 16.08 19.5074 14.6922 19.5074 14.6922C19.5074 14.6922 18.6618 15.8369 18.4263 16.3505Z" fill="#63AFF9"/>
<path d="M5.50137 18.6638C5.22445 19.2678 5.13419 19.819 5.29977 19.8949C5.46536 19.9708 5.82407 19.5427 6.10099 18.9388C6.37791 18.3348 6.76085 16.7082 6.76085 16.7082C6.76085 16.7082 5.77831 18.0598 5.50137 18.6638Z" fill="#63AFF9"/>
<defs>
<linearGradient id="paint0_linear_26_125" x1="13.7677" y1="4.28538" x2="13.7677" y2="17.3558" gradientUnits="userSpaceOnUse">
<stop stop-color="white"/>
<stop offset="1" stop-color="#86A4AA"/>
</linearGradient>
<linearGradient id="paint1_linear_26_125" x1="9.7677" y1="7.28538" x2="9.7677" y2="20.3558" gradientUnits="userSpaceOnUse">
<stop stop-color="white"/>
<stop offset="1" stop-color="#86A4AA"/>
</linearGradient>
</defs>
</svg>
