<svg width="25" height="24" viewBox="0 0 25 24" fill="none" xmlns="http://www.w3.org/2000/svg">
<path opacity="0.502" fill-rule="evenodd" clip-rule="evenodd" d="M1.83937 14.6955L5.84512 14.5358L2.86125 17.1314L6.7035 16.0133L4.45537 19.2479L7.88887 17.2113L6.54 20.9251L9.36037 18.0898L8.9925 22.0033L10.9954 18.609L11.6494 22.4825L12.7121 18.6889L14.3471 22.2829L14.388 18.3694L16.8814 21.4443L15.9412 17.6506L19.1295 20.0067L17.2492 16.5324L20.9689 18.0898L18.2711 15.1747L22.236 15.7737L18.8842 13.6173L22.89 13.218L19.0886 11.9401L22.8491 10.5824L18.8434 10.2629L22.1542 8.06655L18.1894 8.70549L20.8462 5.75041L17.1675 7.38769L18.966 3.87354L15.8186 6.30948L16.677 2.47587L14.2654 5.59068L14.1427 1.6772L12.5895 5.31115L11.445 1.5574L10.8727 5.43095L8.78812 2.07654L9.23775 5.95008L6.3765 3.19467L7.80712 6.86855L4.33275 4.91181L6.62175 8.10649L2.7795 7.02829L5.80425 9.58403L1.7985 9.50416L5.3955 11.2213L1.4715 12.0998L5.43637 12.8985L1.83937 14.6955Z" fill="#FFBF00"/>
<path fill-rule="evenodd" clip-rule="evenodd" d="M0.8175 16.5724L5.35463 15.7737L2.32987 19.1681L6.54 17.3311L4.49625 21.3644L8.09325 18.5291L7.11225 22.9617L9.89175 19.3677L10.0553 23.8403L11.8129 19.6872L13.1209 24L13.7749 19.5674L16.1456 23.401L15.6551 18.9285L18.9251 22.0832L17.331 17.8902L21.2959 20.1664L18.639 16.4526L23.0944 17.6905L19.5791 14.7754L24.198 14.8952L20.0696 12.8985L24.525 11.9002L20.0287 10.9817L24.1163 8.90516L19.5382 9.10483L22.9718 6.10982L18.5573 7.42762L21.1324 3.67388L17.1675 6.02995L18.7208 1.797L15.4916 5.03161L15.9004 0.519135L13.6114 4.43261L12.8756 0L11.6494 4.35274L9.81 0.199667L9.72825 4.71215L6.867 1.198L7.92975 5.55075L4.29187 2.83527L6.41737 6.78869L2.20725 5.03161L5.27287 8.38602L0.73575 7.70715L4.578 10.183L0 10.6223L4.37363 12.0998L0.040875 13.6572L4.61888 14.0166L0.8175 16.5724Z" fill="url(#paint0_linear_25_462)"/>
<path fill-rule="evenodd" clip-rule="evenodd" d="M3.96484 12.4592C3.55609 8.02663 6.90784 4.11315 11.445 3.71382C15.9821 3.31448 19.9878 6.58902 20.3966 11.0216C20.8053 15.4542 17.4536 19.3677 12.9165 19.7671C8.33846 20.1664 4.37359 16.8919 3.96484 12.4592Z" fill="url(#paint1_linear_25_462)"/>
<path opacity="0.1176" fill-rule="evenodd" clip-rule="evenodd" d="M3.96484 12.4592C3.55609 8.02661 6.90784 4.11314 11.445 3.75373C15.9821 3.3544 19.9878 6.62894 20.3966 11.0616C21.0915 16.173 4.78234 17.8103 3.96484 12.4592Z" fill="#FFFF00"/>
<path opacity="0.2549" fill-rule="evenodd" clip-rule="evenodd" d="M5.31375 10.6223C4.21013 8.90517 5.232 6.38937 7.6845 5.07156C10.0961 3.75376 12.9574 4.07323 14.061 5.8303C15.1646 7.54744 14.1428 10.0632 11.6903 11.381C9.27863 12.6989 6.41738 12.3794 5.31375 10.6223Z" fill="#FFFF00"/>
<path fill-rule="evenodd" clip-rule="evenodd" d="M12.0581 19.6073C12.3443 19.6073 12.5895 19.6073 12.8756 19.5674C17.2901 19.208 20.601 15.3744 20.1923 11.0216C19.7835 6.66889 15.9004 3.47422 11.445 3.87355C7.03051 4.27289 3.76051 8.1065 4.12838 12.4193C4.49626 16.4925 7.97063 19.5674 12.0581 19.6073ZM12.0581 19.9667C7.76626 19.9268 4.16926 16.6922 3.76051 12.4592C3.39263 7.94676 6.78526 3.95342 11.445 3.55408C16.0639 3.15475 20.1514 6.50916 20.5601 11.0216C20.9689 15.5341 17.5354 19.5275 12.9165 19.9268C12.6304 19.9667 12.3443 19.9667 12.0581 19.9667Z" fill="url(#paint2_linear_25_462)"/>
<defs>
<linearGradient id="paint0_linear_25_462" x1="11.1143" y1="6.04922" x2="14.3045" y2="24.1052" gradientUnits="userSpaceOnUse">
<stop stop-color="#FFBF00"/>
<stop offset="1" stop-color="#FF8000"/>
</linearGradient>
<linearGradient id="paint1_linear_25_462" x1="11.4334" y1="7.75122" x2="13.571" y2="19.866" gradientUnits="userSpaceOnUse">
<stop stop-color="#FFBF00"/>
<stop offset="1" stop-color="#FF8000"/>
</linearGradient>
<linearGradient id="paint2_linear_25_462" x1="4.16282" y1="17.028" x2="23.6906" y2="3.53473" gradientUnits="userSpaceOnUse">
<stop stop-color="#FFFF00"/>
<stop offset="1" stop-color="#FF8000"/>
</linearGradient>
</defs>
</svg>
