<svg width="24" height="24" viewBox="0 0 24 24" fill="none" xmlns="http://www.w3.org/2000/svg">
<path opacity="0.502" fill-rule="evenodd" clip-rule="evenodd" d="M5.00587 13.2261L8.27723 13.0932L5.8404 15.2527L8.97823 14.3224L7.14227 17.0135L9.94629 15.3191L8.84471 18.4089L11.148 16.05L10.8476 19.3059L12.4833 16.4819L13.0174 19.7046L13.8853 16.5484L15.2205 19.5385L15.2539 16.2826L17.2901 18.8408L16.5224 15.6846L19.1261 17.6448L17.5906 14.7543L20.6283 16.05L18.4251 13.6247L21.6631 14.1231L18.9258 12.329L22.1972 11.9968L19.0927 10.9337L22.1638 9.80409L18.8924 9.5383L21.5963 7.71103L18.3583 8.2426L20.5281 5.78409L17.5238 7.14623L18.9926 4.2226L16.4222 6.24921L17.1232 3.05979L15.1537 5.65119L15.0536 2.39532L13.7851 5.41863L12.8504 2.29565L12.3831 5.5183L10.6807 2.72756L11.0479 5.9502L8.71118 3.6578L9.87952 6.71433L7.04213 5.0864L8.91147 7.74425L5.77364 6.84723L8.24385 8.97351L4.97249 8.90706L7.91004 10.3357L4.70544 11.0666L7.94342 11.731L5.00587 13.2261Z" fill="#FFBF00"/>
<path fill-rule="evenodd" clip-rule="evenodd" d="M4.17135 14.7876L7.87666 14.1231L5.40645 16.9471L8.84471 15.4188L7.17565 18.7744L10.1132 16.4155L9.31205 20.1033L11.582 17.1132L11.7155 20.8342L13.1509 17.379L14.2191 20.9671L14.7532 17.2793L16.6893 20.4688L16.2887 16.7478L18.9592 19.3724L17.6573 15.884L20.8953 17.7777L18.7255 14.6879L22.3641 15.7179L19.4933 13.2926L23.2654 13.3922L19.8939 11.7311L23.5324 10.9005L19.8605 10.1364L23.1986 8.40876L19.4599 8.57488L22.2639 6.08314L18.6588 7.17951L20.7618 4.05653L17.5238 6.0167L18.7923 2.49504L16.1552 5.18612L16.489 1.4319L14.6197 4.68777L14.0188 1L13.0174 4.62132L11.5152 1.16612L11.4484 4.92033L9.11176 1.99669L9.97967 5.61802L7.00875 3.35884L8.74457 6.64794L5.30631 5.18612L7.80989 7.97686L4.10458 7.41207L7.24241 9.4719L3.50372 9.83736L7.07551 11.0666L3.5371 12.3623L7.27579 12.6613L4.17135 14.7876Z" fill="url(#paint0_linear_26_107)"/>
<path fill-rule="evenodd" clip-rule="evenodd" d="M6.74173 11.3657C6.40792 7.67791 9.14518 4.42204 12.8505 4.08981C16.5558 3.75758 19.8271 6.48187 20.161 10.1696C20.4948 13.8574 17.7575 17.1133 14.0522 17.4455C10.3135 17.7777 7.07554 15.0534 6.74173 11.3657Z" fill="url(#paint1_linear_26_107)"/>
<path opacity="0.1176" fill-rule="evenodd" clip-rule="evenodd" d="M6.74173 11.3656C6.40792 7.67786 9.14518 4.42199 12.8505 4.12298C16.5558 3.79075 19.8272 6.51505 20.161 10.2028C20.7284 14.4554 7.40936 15.8175 6.74173 11.3656Z" fill="#FFFF00"/>
<path opacity="0.2549" fill-rule="evenodd" clip-rule="evenodd" d="M7.84323 9.83739C6.94194 8.40879 7.77647 6.31574 9.77934 5.21937C11.7488 4.12301 14.0855 4.38879 14.9868 5.85061C15.8881 7.27921 15.0536 9.37227 13.0507 10.4686C11.0812 11.565 8.74453 11.2992 7.84323 9.83739Z" fill="#FFFF00"/>
<path fill-rule="evenodd" clip-rule="evenodd" d="M13.3512 17.3125C13.5848 17.3125 13.7851 17.3125 14.0188 17.2793C17.6239 16.9803 20.3278 13.7909 19.994 10.1696C19.6602 6.54824 16.489 3.89039 12.8504 4.22262C9.24527 4.55485 6.57478 7.74427 6.87521 11.3324C7.17564 14.7211 10.013 17.2793 13.3512 17.3125ZM13.3512 17.6116C9.84613 17.5783 6.90859 14.8873 6.57478 11.3656C6.27435 7.61138 9.04498 4.28907 12.8504 3.95683C16.6225 3.6246 19.9606 6.41535 20.2944 10.1696C20.6282 13.9238 17.8242 17.2461 14.0522 17.5783C13.8185 17.6116 13.5848 17.6116 13.3512 17.6116Z" fill="url(#paint2_linear_26_107)"/>
<path opacity="0.4627" fill-rule="evenodd" clip-rule="evenodd" d="M13.9743 18.9349C15.4891 19.0503 16.8218 18.4314 17.6562 17.478L17.9218 17.1168L18.2467 17.2263C18.3856 17.2793 18.5276 17.2901 18.7169 17.3045C20.0424 17.4055 21.2017 16.5615 21.2916 15.3818C21.375 14.2864 20.4957 13.3295 19.2745 13.1094L19.0852 13.095L19.0378 13.0913L18.6559 13.1046L18.6624 13.0204C18.5404 12.1212 17.6891 11.4207 16.6477 11.3414C16.3637 11.3197 16.0764 11.3402 15.7828 11.445L15.7386 11.3993C15.1842 10.5519 14.1372 9.92124 12.9537 9.83109C11.6283 9.73013 10.3967 10.272 9.75484 11.1977L9.69787 11.3205L9.65053 11.3169C9.55586 11.3097 9.46118 11.3025 9.36651 11.2953L7.82282 16.5594L7.94558 16.823C8.41174 17.5789 9.27585 18.1109 10.2699 18.1866C10.6486 18.2154 10.9832 18.1986 11.3242 18.0974L11.6179 17.9926L12.1602 18.373C12.5197 18.6546 13.2169 18.8772 13.9743 18.9349Z" fill="#A75001" fill-opacity="0.3"/>
<path fill-rule="evenodd" clip-rule="evenodd" d="M14.2129 22C16.2829 22 18.0425 20.8283 18.8187 19.1683L19.3362 19.3147C19.4915 19.3636 19.6985 19.3636 19.8538 19.3636C21.4063 19.3636 22.7001 18.1918 22.7001 16.7271C22.7001 15.2624 21.4063 14.0907 19.8538 14.0907C19.6467 14.0907 19.4397 14.0907 19.2845 14.1395H19.2327L18.1874 15.0574C17.9286 13.9833 17.8872 12.0401 16.6452 12.0401C16.2829 12.0401 15.9724 12.0889 15.6619 12.2354L15.5067 12.2842L15.4031 12.1378C14.6269 11.1125 13.3848 10.429 11.9358 10.429C10.3315 10.429 8.93424 11.2589 8.26148 12.4795L8.15797 12.7236L8.00272 12.6748C7.89922 12.6748 7.79571 12.6748 7.69221 12.6748C6.60544 12.6748 5.62216 13.2119 5.0529 13.993V14.0419L4.89765 13.993C4.63889 13.9442 4.38013 13.8954 4.12138 13.8954C3.2416 13.8954 3.44861 14.7254 2.98285 15.3113H1.79257L1.68907 15.2624C1.58557 15.2624 1.53382 15.2624 1.43031 15.2624C0.705797 15.2624 0.136532 15.7995 0.136532 16.4342C0.136532 17.0689 0.705797 17.6059 1.43031 17.6059C1.58557 17.6059 1.79257 17.5571 1.94783 17.5083L1.99957 17.4595L1.89607 17.5571C2.10308 17.8012 2.31008 18.0453 2.56884 18.1918L2.98285 18.3871L3.08635 18.5336C3.55211 19.1683 4.32838 19.5589 5.20815 19.5589C5.57041 19.5589 5.88092 19.51 6.19143 19.3636L6.24318 19.3147V19.3636C6.76069 20.4865 7.95097 21.2677 9.34825 21.2677C9.91752 21.2677 10.4868 21.1212 10.9525 20.8771L11.0043 20.9259C11.9358 21.6094 13.0226 22 14.2129 22Z" fill="white"/>
<path fill-rule="evenodd" clip-rule="evenodd" d="M14.0205 21.7146C16.0663 21.7146 17.8051 20.5431 18.5723 18.8835L19.0837 19.03C19.2371 19.0788 19.4417 19.0788 19.5951 19.0788C21.1294 19.0788 22.408 17.9073 22.408 16.443C22.408 14.9787 21.1294 13.8072 19.5951 13.8072C19.3905 13.8072 19.186 13.8072 19.0325 13.856H18.9814L18.9303 13.6608C18.6745 12.5869 17.6517 11.7572 16.4243 11.7572C16.0663 11.7572 15.7594 11.806 15.4525 11.9524L15.2991 12.0012L15.1968 11.8548C14.4297 10.8297 13.2023 10.1464 11.7703 10.1464C10.1848 10.1464 8.80399 10.9762 8.13913 12.1964L8.03685 12.4405L7.88342 12.3917C7.78114 12.3917 7.67885 12.3917 7.57656 12.3917C6.50257 12.3917 5.53086 12.9286 4.96828 13.7096V13.7584L4.81486 13.7096C4.55914 13.6608 4.30343 13.612 4.04771 13.612C3.17829 13.612 2.41115 14.0513 1.95086 14.637L1.74629 15.0275L1.64401 14.9787C1.54172 14.9787 1.49058 14.9787 1.38829 14.9787C0.672295 14.9787 0.109726 15.5156 0.109726 16.1501C0.109726 16.7847 0.672295 17.3216 1.38829 17.3216C1.54172 17.3216 1.74629 17.2728 1.89972 17.224L1.95086 17.1752L1.84858 17.2728C2.05315 17.5168 2.25772 17.7609 2.51343 17.9073L2.92257 18.1026L3.02486 18.249C3.48514 18.8835 4.25229 19.274 5.12171 19.274C5.47971 19.274 5.78657 19.2252 6.09343 19.0788L6.14457 19.03V19.0788C6.65599 20.2014 7.83228 20.9824 9.21313 20.9824C9.7757 20.9824 10.3383 20.836 10.7986 20.5919L10.8497 20.6407C11.7703 21.3241 12.8443 21.7146 14.0205 21.7146Z" fill="url(#paint3_linear_26_107)"/>
<path opacity="0.1176" fill-rule="evenodd" clip-rule="evenodd" d="M19.6462 13.6608L19.1348 13.7096V13.612C18.8791 12.4894 17.8051 11.6108 16.5265 11.6108C16.1685 11.6108 15.8105 11.6596 15.5037 11.806H15.4525L15.4014 11.7572C14.6343 10.6834 13.3557 10 11.8726 10C10.236 10 8.85513 10.8298 8.08799 12.0989L8.03685 12.2453H7.93456C7.83227 12.2453 7.72999 12.2453 7.57656 12.2453C6.60485 12.2453 5.68428 12.6358 5.07057 13.3191L4.86599 13.5632H4.81485C4.55914 13.4656 4.30342 13.4656 3.99657 13.4656C3.076 13.4656 2.25771 13.9049 1.79743 14.5882L1.644 14.8323H1.59286C1.49057 14.8323 1.38829 14.7835 1.286 14.7835C0.570004 17.4681 21.2828 17.3216 19.6462 13.6608Z" fill="white"/>
<defs>
<linearGradient id="paint0_linear_26_107" x1="12.5804" y1="6.03273" x2="15.2812" y2="21.0375" gradientUnits="userSpaceOnUse">
<stop stop-color="#FFBF00"/>
<stop offset="1" stop-color="#FF8000"/>
</linearGradient>
<linearGradient id="paint1_linear_26_107" x1="12.841" y1="7.44878" x2="14.6507" y2="17.5164" gradientUnits="userSpaceOnUse">
<stop stop-color="#FFBF00"/>
<stop offset="1" stop-color="#FF8000"/>
</linearGradient>
<linearGradient id="paint2_linear_26_107" x1="6.90333" y1="15.1666" x2="23.041" y2="4.2209" gradientUnits="userSpaceOnUse">
<stop stop-color="#FFFF00"/>
<stop offset="1" stop-color="#FF8000"/>
</linearGradient>
<linearGradient id="paint3_linear_26_107" x1="11.2073" y1="11.4873" x2="11.2073" y2="26.6111" gradientUnits="userSpaceOnUse">
<stop stop-color="white"/>
<stop offset="1" stop-color="#86A4AA"/>
</linearGradient>
</defs>
</svg>
